<?xml version="1.0" encoding="utf-8" standalone="no"?>
<!DOCTYPE svg PUBLIC "-//W3C//DTD SVG 1.1//EN"
  "http://www.w3.org/Graphics/SVG/1.1/DTD/svg11.dtd">
<svg xmlns:xlink="http://www.w3.org/1999/xlink" width="573.180625pt" height="493.185625pt" viewBox="0 0 573.180625 493.185625" xmlns="http://www.w3.org/2000/svg" version="1.1">
 <metadata>
  <rdf:RDF xmlns:dc="http://purl.org/dc/elements/1.1/" xmlns:cc="http://creativecommons.org/ns#" xmlns:rdf="http://www.w3.org/1999/02/22-rdf-syntax-ns#">
   <cc:Work>
    <dc:type rdf:resource="http://purl.org/dc/dcmitype/StillImage"/>
    <dc:date>2025-04-28T06:22:05.238045</dc:date>
    <dc:format>image/svg+xml</dc:format>
    <dc:creator>
     <cc:Agent>
      <dc:title>Matplotlib v3.8.3, https://matplotlib.org/</dc:title>
     </cc:Agent>
    </dc:creator>
   </cc:Work>
  </rdf:RDF>
 </metadata>
 <defs>
  <style type="text/css">*{stroke-linejoin: round; stroke-linecap: butt}</style>
 </defs>
 <g id="figure_1">
  <g id="patch_1">
   <path d="M 0 493.185625 
L 573.180625 493.185625 
L 573.180625 0 
L 0 0 
L 0 493.185625 
z
" style="fill: none"/>
  </g>
  <g id="axes_1">
   <g id="patch_2">
    <path d="M 63.780625 442.08 
L 565.980625 442.08 
L 565.980625 7.2 
L 63.780625 7.2 
z
" style="fill: #ffffff"/>
   </g>
   <g id="patch_3">
    <path d="M 86.607898 172234.699046 
L 101.82608 172234.699046 
L 101.82608 26.967273 
L 86.607898 26.967273 
z
" clip-path="url(#p36ea336588)" style="fill: #1f77b4"/>
   </g>
   <g id="patch_4">
    <path d="M 101.82608 172234.699046 
L 117.044261 172234.699046 
L 117.044261 288.616704 
L 101.82608 288.616704 
z
" clip-path="url(#p36ea336588)" style="fill: #1f77b4"/>
   </g>
   <g id="patch_5">
    <path d="M 117.044261 172234.699046 
L 132.262443 172234.699046 
L 132.262443 318.871363 
L 117.044261 318.871363 
z
" clip-path="url(#p36ea336588)" style="fill: #1f77b4"/>
   </g>
   <g id="patch_6">
    <path d="M 132.262443 172234.699046 
L 147.480625 172234.699046 
L 147.480625 340.337386 
L 132.262443 340.337386 
z
" clip-path="url(#p36ea336588)" style="fill: #1f77b4"/>
   </g>
   <g id="patch_7">
    <path d="M 147.480625 172234.699046 
L 162.698807 172234.699046 
L 162.698807 340.337386 
L 147.480625 340.337386 
z
" clip-path="url(#p36ea336588)" style="fill: #1f77b4"/>
   </g>
   <g id="patch_8">
    <path d="M 162.698807 172234.699046 
L 177.916989 172234.699046 
L 177.916989 172234.699046 
L 162.698807 172234.699046 
z
" clip-path="url(#p36ea336588)" style="fill: #1f77b4"/>
   </g>
   <g id="patch_9">
    <path d="M 177.916989 172234.699046 
L 193.13517 172234.699046 
L 193.13517 172234.699046 
L 177.916989 172234.699046 
z
" clip-path="url(#p36ea336588)" style="fill: #1f77b4"/>
   </g>
   <g id="patch_10">
    <path d="M 193.13517 172234.699046 
L 208.353352 172234.699046 
L 208.353352 172234.699046 
L 193.13517 172234.699046 
z
" clip-path="url(#p36ea336588)" style="fill: #1f77b4"/>
   </g>
   <g id="patch_11">
    <path d="M 208.353352 172234.699046 
L 223.571534 172234.699046 
L 223.571534 422.312727 
L 208.353352 422.312727 
z
" clip-path="url(#p36ea336588)" style="fill: #1f77b4"/>
   </g>
   <g id="patch_12">
    <path d="M 223.571534 172234.699046 
L 238.789716 172234.699046 
L 238.789716 172234.699046 
L 223.571534 172234.699046 
z
" clip-path="url(#p36ea336588)" style="fill: #1f77b4"/>
   </g>
   <g id="patch_13">
    <path d="M 238.789716 172234.699046 
L 254.007898 172234.699046 
L 254.007898 422.312727 
L 238.789716 422.312727 
z
" clip-path="url(#p36ea336588)" style="fill: #1f77b4"/>
   </g>
   <g id="patch_14">
    <path d="M 254.007898 172234.699046 
L 269.22608 172234.699046 
L 269.22608 172234.699046 
L 254.007898 172234.699046 
z
" clip-path="url(#p36ea336588)" style="fill: #1f77b4"/>
   </g>
   <g id="patch_15">
    <path d="M 269.22608 172234.699046 
L 284.444261 172234.699046 
L 284.444261 172234.699046 
L 269.22608 172234.699046 
z
" clip-path="url(#p36ea336588)" style="fill: #1f77b4"/>
   </g>
   <g id="patch_16">
    <path d="M 284.444261 172234.699046 
L 299.662443 172234.699046 
L 299.662443 172234.699046 
L 284.444261 172234.699046 
z
" clip-path="url(#p36ea336588)" style="fill: #1f77b4"/>
   </g>
   <g id="patch_17">
    <path d="M 299.662443 172234.699046 
L 314.880625 172234.699046 
L 314.880625 172234.699046 
L 299.662443 172234.699046 
z
" clip-path="url(#p36ea336588)" style="fill: #1f77b4"/>
   </g>
   <g id="patch_18">
    <path d="M 314.880625 172234.699046 
L 330.098807 172234.699046 
L 330.098807 422.312727 
L 314.880625 422.312727 
z
" clip-path="url(#p36ea336588)" style="fill: #1f77b4"/>
   </g>
   <g id="patch_19">
    <path d="M 330.098807 172234.699046 
L 345.316989 172234.699046 
L 345.316989 172234.699046 
L 330.098807 172234.699046 
z
" clip-path="url(#p36ea336588)" style="fill: #1f77b4"/>
   </g>
   <g id="patch_20">
    <path d="M 345.316989 172234.699046 
L 360.53517 172234.699046 
L 360.53517 422.312727 
L 345.316989 422.312727 
z
" clip-path="url(#p36ea336588)" style="fill: #1f77b4"/>
   </g>
   <g id="patch_21">
    <path d="M 360.53517 172234.699046 
L 375.753352 172234.699046 
L 375.753352 172234.699046 
L 360.53517 172234.699046 
z
" clip-path="url(#p36ea336588)" style="fill: #1f77b4"/>
   </g>
   <g id="patch_22">
    <path d="M 375.753352 172234.699046 
L 390.971534 172234.699046 
L 390.971534 172234.699046 
L 375.753352 172234.699046 
z
" clip-path="url(#p36ea336588)" style="fill: #1f77b4"/>
   </g>
   <g id="patch_23">
    <path d="M 390.971534 172234.699046 
L 406.189716 172234.699046 
L 406.189716 172234.699046 
L 390.971534 172234.699046 
z
" clip-path="url(#p36ea336588)" style="fill: #1f77b4"/>
   </g>
   <g id="patch_24">
    <path d="M 406.189716 172234.699046 
L 421.407898 172234.699046 
L 421.407898 172234.699046 
L 406.189716 172234.699046 
z
" clip-path="url(#p36ea336588)" style="fill: #1f77b4"/>
   </g>
   <g id="patch_25">
    <path d="M 421.407898 172234.699046 
L 436.62608 172234.699046 
L 436.62608 172234.699046 
L 421.407898 172234.699046 
z
" clip-path="url(#p36ea336588)" style="fill: #1f77b4"/>
   </g>
   <g id="patch_26">
    <path d="M 436.62608 172234.699046 
L 451.844261 172234.699046 
L 451.844261 172234.699046 
L 436.62608 172234.699046 
z
" clip-path="url(#p36ea336588)" style="fill: #1f77b4"/>
   </g>
   <g id="patch_27">
    <path d="M 451.844261 172234.699046 
L 467.062443 172234.699046 
L 467.062443 172234.699046 
L 451.844261 172234.699046 
z
" clip-path="url(#p36ea336588)" style="fill: #1f77b4"/>
   </g>
   <g id="patch_28">
    <path d="M 467.062443 172234.699046 
L 482.280625 172234.699046 
L 482.280625 422.312727 
L 467.062443 422.312727 
z
" clip-path="url(#p36ea336588)" style="fill: #1f77b4"/>
   </g>
   <g id="patch_29">
    <path d="M 482.280625 172234.699046 
L 497.498807 172234.699046 
L 497.498807 422.312727 
L 482.280625 422.312727 
z
" clip-path="url(#p36ea336588)" style="fill: #1f77b4"/>
   </g>
   <g id="patch_30">
    <path d="M 497.498807 172234.699046 
L 512.716989 172234.699046 
L 512.716989 172234.699046 
L 497.498807 172234.699046 
z
" clip-path="url(#p36ea336588)" style="fill: #1f77b4"/>
   </g>
   <g id="patch_31">
    <path d="M 512.716989 172234.699046 
L 527.93517 172234.699046 
L 527.93517 172234.699046 
L 512.716989 172234.699046 
z
" clip-path="url(#p36ea336588)" style="fill: #1f77b4"/>
   </g>
   <g id="patch_32">
    <path d="M 527.93517 172234.699046 
L 543.153352 172234.699046 
L 543.153352 172234.699046 
L 527.93517 172234.699046 
z
" clip-path="url(#p36ea336588)" style="fill: #1f77b4"/>
   </g>
   <g id="matplotlib.axis_1">
    <g id="xtick_1">
     <g id="line2d_1">
      <defs>
       <path id="m5a94fa95af" d="M 0 0 
L 0 3.5 
" style="stroke: #000000; stroke-width: 0.8"/>
      </defs>
      <g>
       <use xlink:href="#m5a94fa95af" x="86.607898" y="442.08" style="stroke: #000000; stroke-width: 0.8"/>
      </g>
     </g>
     <g id="text_1">
      <!-- 0 -->
      <g transform="translate(81.517898 461.2375) scale(0.16 -0.16)">
       <defs>
        <path id="DejaVuSans-30" d="M 2034 4250 
Q 1547 4250 1301 3770 
Q 1056 3291 1056 2328 
Q 1056 1369 1301 889 
Q 1547 409 2034 409 
Q 2525 409 2770 889 
Q 3016 1369 3016 2328 
Q 3016 3291 2770 3770 
Q 2525 4250 2034 4250 
z
M 2034 4750 
Q 2819 4750 3233 4129 
Q 3647 3509 3647 2328 
Q 3647 1150 3233 529 
Q 2819 -91 2034 -91 
Q 1250 -91 836 529 
Q 422 1150 422 2328 
Q 422 3509 836 4129 
Q 1250 4750 2034 4750 
z
" transform="scale(0.015625)"/>
       </defs>
       <use xlink:href="#DejaVuSans-30"/>
      </g>
     </g>
    </g>
    <g id="xtick_2">
     <g id="line2d_2">
      <g>
       <use xlink:href="#m5a94fa95af" x="176.126614" y="442.08" style="stroke: #000000; stroke-width: 0.8"/>
      </g>
     </g>
     <g id="text_2">
      <!-- 50 -->
      <g transform="translate(165.946614 461.2375) scale(0.16 -0.16)">
       <defs>
        <path id="DejaVuSans-35" d="M 691 4666 
L 3169 4666 
L 3169 4134 
L 1269 4134 
L 1269 2991 
Q 1406 3038 1543 3061 
Q 1681 3084 1819 3084 
Q 2600 3084 3056 2656 
Q 3513 2228 3513 1497 
Q 3513 744 3044 326 
Q 2575 -91 1722 -91 
Q 1428 -91 1123 -41 
Q 819 9 494 109 
L 494 744 
Q 775 591 1075 516 
Q 1375 441 1709 441 
Q 2250 441 2565 725 
Q 2881 1009 2881 1497 
Q 2881 1984 2565 2268 
Q 2250 2553 1709 2553 
Q 1456 2553 1204 2497 
Q 953 2441 691 2322 
L 691 4666 
z
" transform="scale(0.015625)"/>
       </defs>
       <use xlink:href="#DejaVuSans-35"/>
       <use xlink:href="#DejaVuSans-30" x="63.623047"/>
      </g>
     </g>
    </g>
    <g id="xtick_3">
     <g id="line2d_3">
      <g>
       <use xlink:href="#m5a94fa95af" x="265.645331" y="442.08" style="stroke: #000000; stroke-width: 0.8"/>
      </g>
     </g>
     <g id="text_3">
      <!-- 100 -->
      <g transform="translate(250.375331 461.2375) scale(0.16 -0.16)">
       <defs>
        <path id="DejaVuSans-31" d="M 794 531 
L 1825 531 
L 1825 4091 
L 703 3866 
L 703 4441 
L 1819 4666 
L 2450 4666 
L 2450 531 
L 3481 531 
L 3481 0 
L 794 0 
L 794 531 
z
" transform="scale(0.015625)"/>
       </defs>
       <use xlink:href="#DejaVuSans-31"/>
       <use xlink:href="#DejaVuSans-30" x="63.623047"/>
       <use xlink:href="#DejaVuSans-30" x="127.246094"/>
      </g>
     </g>
    </g>
    <g id="xtick_4">
     <g id="line2d_4">
      <g>
       <use xlink:href="#m5a94fa95af" x="355.164047" y="442.08" style="stroke: #000000; stroke-width: 0.8"/>
      </g>
     </g>
     <g id="text_4">
      <!-- 150 -->
      <g transform="translate(339.894047 461.2375) scale(0.16 -0.16)">
       <use xlink:href="#DejaVuSans-31"/>
       <use xlink:href="#DejaVuSans-35" x="63.623047"/>
       <use xlink:href="#DejaVuSans-30" x="127.246094"/>
      </g>
     </g>
    </g>
    <g id="xtick_5">
     <g id="line2d_5">
      <g>
       <use xlink:href="#m5a94fa95af" x="444.682764" y="442.08" style="stroke: #000000; stroke-width: 0.8"/>
      </g>
     </g>
     <g id="text_5">
      <!-- 200 -->
      <g transform="translate(429.412764 461.2375) scale(0.16 -0.16)">
       <defs>
        <path id="DejaVuSans-32" d="M 1228 531 
L 3431 531 
L 3431 0 
L 469 0 
L 469 531 
Q 828 903 1448 1529 
Q 2069 2156 2228 2338 
Q 2531 2678 2651 2914 
Q 2772 3150 2772 3378 
Q 2772 3750 2511 3984 
Q 2250 4219 1831 4219 
Q 1534 4219 1204 4116 
Q 875 4013 500 3803 
L 500 4441 
Q 881 4594 1212 4672 
Q 1544 4750 1819 4750 
Q 2544 4750 2975 4387 
Q 3406 4025 3406 3419 
Q 3406 3131 3298 2873 
Q 3191 2616 2906 2266 
Q 2828 2175 2409 1742 
Q 1991 1309 1228 531 
z
" transform="scale(0.015625)"/>
       </defs>
       <use xlink:href="#DejaVuSans-32"/>
       <use xlink:href="#DejaVuSans-30" x="63.623047"/>
       <use xlink:href="#DejaVuSans-30" x="127.246094"/>
      </g>
     </g>
    </g>
    <g id="xtick_6">
     <g id="line2d_6">
      <g>
       <use xlink:href="#m5a94fa95af" x="534.201481" y="442.08" style="stroke: #000000; stroke-width: 0.8"/>
      </g>
     </g>
     <g id="text_6">
      <!-- 250 -->
      <g transform="translate(518.931481 461.2375) scale(0.16 -0.16)">
       <use xlink:href="#DejaVuSans-32"/>
       <use xlink:href="#DejaVuSans-35" x="63.623047"/>
       <use xlink:href="#DejaVuSans-30" x="127.246094"/>
      </g>
     </g>
    </g>
    <g id="text_7">
     <!-- Feature value, GeV -->
     <g transform="translate(229.045938 482.242187) scale(0.18 -0.18)">
      <defs>
       <path id="DejaVuSans-46" d="M 628 4666 
L 3309 4666 
L 3309 4134 
L 1259 4134 
L 1259 2759 
L 3109 2759 
L 3109 2228 
L 1259 2228 
L 1259 0 
L 628 0 
L 628 4666 
z
" transform="scale(0.015625)"/>
       <path id="DejaVuSans-65" d="M 3597 1894 
L 3597 1613 
L 953 1613 
Q 991 1019 1311 708 
Q 1631 397 2203 397 
Q 2534 397 2845 478 
Q 3156 559 3463 722 
L 3463 178 
Q 3153 47 2828 -22 
Q 2503 -91 2169 -91 
Q 1331 -91 842 396 
Q 353 884 353 1716 
Q 353 2575 817 3079 
Q 1281 3584 2069 3584 
Q 2775 3584 3186 3129 
Q 3597 2675 3597 1894 
z
M 3022 2063 
Q 3016 2534 2758 2815 
Q 2500 3097 2075 3097 
Q 1594 3097 1305 2825 
Q 1016 2553 972 2059 
L 3022 2063 
z
" transform="scale(0.015625)"/>
       <path id="DejaVuSans-61" d="M 2194 1759 
Q 1497 1759 1228 1600 
Q 959 1441 959 1056 
Q 959 750 1161 570 
Q 1363 391 1709 391 
Q 2188 391 2477 730 
Q 2766 1069 2766 1631 
L 2766 1759 
L 2194 1759 
z
M 3341 1997 
L 3341 0 
L 2766 0 
L 2766 531 
Q 2569 213 2275 61 
Q 1981 -91 1556 -91 
Q 1019 -91 701 211 
Q 384 513 384 1019 
Q 384 1609 779 1909 
Q 1175 2209 1959 2209 
L 2766 2209 
L 2766 2266 
Q 2766 2663 2505 2880 
Q 2244 3097 1772 3097 
Q 1472 3097 1187 3025 
Q 903 2953 641 2809 
L 641 3341 
Q 956 3463 1253 3523 
Q 1550 3584 1831 3584 
Q 2591 3584 2966 3190 
Q 3341 2797 3341 1997 
z
" transform="scale(0.015625)"/>
       <path id="DejaVuSans-74" d="M 1172 4494 
L 1172 3500 
L 2356 3500 
L 2356 3053 
L 1172 3053 
L 1172 1153 
Q 1172 725 1289 603 
Q 1406 481 1766 481 
L 2356 481 
L 2356 0 
L 1766 0 
Q 1100 0 847 248 
Q 594 497 594 1153 
L 594 3053 
L 172 3053 
L 172 3500 
L 594 3500 
L 594 4494 
L 1172 4494 
z
" transform="scale(0.015625)"/>
       <path id="DejaVuSans-75" d="M 544 1381 
L 544 3500 
L 1119 3500 
L 1119 1403 
Q 1119 906 1312 657 
Q 1506 409 1894 409 
Q 2359 409 2629 706 
Q 2900 1003 2900 1516 
L 2900 3500 
L 3475 3500 
L 3475 0 
L 2900 0 
L 2900 538 
Q 2691 219 2414 64 
Q 2138 -91 1772 -91 
Q 1169 -91 856 284 
Q 544 659 544 1381 
z
M 1991 3584 
L 1991 3584 
z
" transform="scale(0.015625)"/>
       <path id="DejaVuSans-72" d="M 2631 2963 
Q 2534 3019 2420 3045 
Q 2306 3072 2169 3072 
Q 1681 3072 1420 2755 
Q 1159 2438 1159 1844 
L 1159 0 
L 581 0 
L 581 3500 
L 1159 3500 
L 1159 2956 
Q 1341 3275 1631 3429 
Q 1922 3584 2338 3584 
Q 2397 3584 2469 3576 
Q 2541 3569 2628 3553 
L 2631 2963 
z
" transform="scale(0.015625)"/>
       <path id="DejaVuSans-20" transform="scale(0.015625)"/>
       <path id="DejaVuSans-76" d="M 191 3500 
L 800 3500 
L 1894 563 
L 2988 3500 
L 3597 3500 
L 2284 0 
L 1503 0 
L 191 3500 
z
" transform="scale(0.015625)"/>
       <path id="DejaVuSans-6c" d="M 603 4863 
L 1178 4863 
L 1178 0 
L 603 0 
L 603 4863 
z
" transform="scale(0.015625)"/>
       <path id="DejaVuSans-2c" d="M 750 794 
L 1409 794 
L 1409 256 
L 897 -744 
L 494 -744 
L 750 256 
L 750 794 
z
" transform="scale(0.015625)"/>
       <path id="DejaVuSans-47" d="M 3809 666 
L 3809 1919 
L 2778 1919 
L 2778 2438 
L 4434 2438 
L 4434 434 
Q 4069 175 3628 42 
Q 3188 -91 2688 -91 
Q 1594 -91 976 548 
Q 359 1188 359 2328 
Q 359 3472 976 4111 
Q 1594 4750 2688 4750 
Q 3144 4750 3555 4637 
Q 3966 4525 4313 4306 
L 4313 3634 
Q 3963 3931 3569 4081 
Q 3175 4231 2741 4231 
Q 1884 4231 1454 3753 
Q 1025 3275 1025 2328 
Q 1025 1384 1454 906 
Q 1884 428 2741 428 
Q 3075 428 3337 486 
Q 3600 544 3809 666 
z
" transform="scale(0.015625)"/>
       <path id="DejaVuSans-56" d="M 1831 0 
L 50 4666 
L 709 4666 
L 2188 738 
L 3669 4666 
L 4325 4666 
L 2547 0 
L 1831 0 
z
" transform="scale(0.015625)"/>
      </defs>
      <use xlink:href="#DejaVuSans-46"/>
      <use xlink:href="#DejaVuSans-65" x="52.019531"/>
      <use xlink:href="#DejaVuSans-61" x="113.542969"/>
      <use xlink:href="#DejaVuSans-74" x="174.822266"/>
      <use xlink:href="#DejaVuSans-75" x="214.03125"/>
      <use xlink:href="#DejaVuSans-72" x="277.410156"/>
      <use xlink:href="#DejaVuSans-65" x="316.273438"/>
      <use xlink:href="#DejaVuSans-20" x="377.796875"/>
      <use xlink:href="#DejaVuSans-76" x="409.583984"/>
      <use xlink:href="#DejaVuSans-61" x="468.763672"/>
      <use xlink:href="#DejaVuSans-6c" x="530.042969"/>
      <use xlink:href="#DejaVuSans-75" x="557.826172"/>
      <use xlink:href="#DejaVuSans-65" x="621.205078"/>
      <use xlink:href="#DejaVuSans-2c" x="682.728516"/>
      <use xlink:href="#DejaVuSans-20" x="714.515625"/>
      <use xlink:href="#DejaVuSans-47" x="746.302734"/>
      <use xlink:href="#DejaVuSans-65" x="823.792969"/>
      <use xlink:href="#DejaVuSans-56" x="885.316406"/>
     </g>
    </g>
   </g>
   <g id="matplotlib.axis_2">
    <g id="ytick_1">
     <g id="line2d_7">
      <defs>
       <path id="m5aa9298594" d="M 0 0 
L -3.5 0 
" style="stroke: #000000; stroke-width: 0.8"/>
      </defs>
      <g>
       <use xlink:href="#m5aa9298594" x="63.780625" y="422.312727" style="stroke: #000000; stroke-width: 0.8"/>
      </g>
     </g>
     <g id="text_8">
      <!-- $\mathdefault{10^{0}}$ -->
      <g transform="translate(28.620625 428.391477) scale(0.16 -0.16)">
       <use xlink:href="#DejaVuSans-31" transform="translate(0 0.765625)"/>
       <use xlink:href="#DejaVuSans-30" transform="translate(63.623047 0.765625)"/>
       <use xlink:href="#DejaVuSans-30" transform="translate(128.203125 39.046875) scale(0.7)"/>
      </g>
     </g>
    </g>
    <g id="ytick_2">
     <g id="line2d_8">
      <g>
       <use xlink:href="#m5aa9298594" x="63.780625" y="250.500341" style="stroke: #000000; stroke-width: 0.8"/>
      </g>
     </g>
     <g id="text_9">
      <!-- $\mathdefault{10^{1}}$ -->
      <g transform="translate(28.620625 256.579091) scale(0.16 -0.16)">
       <use xlink:href="#DejaVuSans-31" transform="translate(0 0.684375)"/>
       <use xlink:href="#DejaVuSans-30" transform="translate(63.623047 0.684375)"/>
       <use xlink:href="#DejaVuSans-31" transform="translate(128.203125 38.965625) scale(0.7)"/>
      </g>
     </g>
    </g>
    <g id="ytick_3">
     <g id="line2d_9">
      <g>
       <use xlink:href="#m5aa9298594" x="63.780625" y="78.687955" style="stroke: #000000; stroke-width: 0.8"/>
      </g>
     </g>
     <g id="text_10">
      <!-- $\mathdefault{10^{2}}$ -->
      <g transform="translate(28.620625 84.766705) scale(0.16 -0.16)">
       <use xlink:href="#DejaVuSans-31" transform="translate(0 0.765625)"/>
       <use xlink:href="#DejaVuSans-30" transform="translate(63.623047 0.765625)"/>
       <use xlink:href="#DejaVuSans-32" transform="translate(128.203125 39.046875) scale(0.7)"/>
      </g>
     </g>
    </g>
    <g id="ytick_4">
     <g id="line2d_10">
      <defs>
       <path id="macb284a1a8" d="M 0 0 
L -2 0 
" style="stroke: #000000; stroke-width: 0.6"/>
      </defs>
      <g>
       <use xlink:href="#macb284a1a8" x="63.780625" y="438.963068" style="stroke: #000000; stroke-width: 0.6"/>
      </g>
     </g>
    </g>
    <g id="ytick_5">
     <g id="line2d_11">
      <g>
       <use xlink:href="#macb284a1a8" x="63.780625" y="430.174431" style="stroke: #000000; stroke-width: 0.6"/>
      </g>
     </g>
    </g>
    <g id="ytick_6">
     <g id="line2d_12">
      <g>
       <use xlink:href="#macb284a1a8" x="63.780625" y="370.592045" style="stroke: #000000; stroke-width: 0.6"/>
      </g>
     </g>
    </g>
    <g id="ytick_7">
     <g id="line2d_13">
      <g>
       <use xlink:href="#macb284a1a8" x="63.780625" y="340.337386" style="stroke: #000000; stroke-width: 0.6"/>
      </g>
     </g>
    </g>
    <g id="ytick_8">
     <g id="line2d_14">
      <g>
       <use xlink:href="#macb284a1a8" x="63.780625" y="318.871363" style="stroke: #000000; stroke-width: 0.6"/>
      </g>
     </g>
    </g>
    <g id="ytick_9">
     <g id="line2d_15">
      <g>
       <use xlink:href="#macb284a1a8" x="63.780625" y="302.221023" style="stroke: #000000; stroke-width: 0.6"/>
      </g>
     </g>
    </g>
    <g id="ytick_10">
     <g id="line2d_16">
      <g>
       <use xlink:href="#macb284a1a8" x="63.780625" y="288.616704" style="stroke: #000000; stroke-width: 0.6"/>
      </g>
     </g>
    </g>
    <g id="ytick_11">
     <g id="line2d_17">
      <g>
       <use xlink:href="#macb284a1a8" x="63.780625" y="277.114416" style="stroke: #000000; stroke-width: 0.6"/>
      </g>
     </g>
    </g>
    <g id="ytick_12">
     <g id="line2d_18">
      <g>
       <use xlink:href="#macb284a1a8" x="63.780625" y="267.150682" style="stroke: #000000; stroke-width: 0.6"/>
      </g>
     </g>
    </g>
    <g id="ytick_13">
     <g id="line2d_19">
      <g>
       <use xlink:href="#macb284a1a8" x="63.780625" y="258.362045" style="stroke: #000000; stroke-width: 0.6"/>
      </g>
     </g>
    </g>
    <g id="ytick_14">
     <g id="line2d_20">
      <g>
       <use xlink:href="#macb284a1a8" x="63.780625" y="198.779659" style="stroke: #000000; stroke-width: 0.6"/>
      </g>
     </g>
    </g>
    <g id="ytick_15">
     <g id="line2d_21">
      <g>
       <use xlink:href="#macb284a1a8" x="63.780625" y="168.525" style="stroke: #000000; stroke-width: 0.6"/>
      </g>
     </g>
    </g>
    <g id="ytick_16">
     <g id="line2d_22">
      <g>
       <use xlink:href="#macb284a1a8" x="63.780625" y="147.058977" style="stroke: #000000; stroke-width: 0.6"/>
      </g>
     </g>
    </g>
    <g id="ytick_17">
     <g id="line2d_23">
      <g>
       <use xlink:href="#macb284a1a8" x="63.780625" y="130.408637" style="stroke: #000000; stroke-width: 0.6"/>
      </g>
     </g>
    </g>
    <g id="ytick_18">
     <g id="line2d_24">
      <g>
       <use xlink:href="#macb284a1a8" x="63.780625" y="116.804318" style="stroke: #000000; stroke-width: 0.6"/>
      </g>
     </g>
    </g>
    <g id="ytick_19">
     <g id="line2d_25">
      <g>
       <use xlink:href="#macb284a1a8" x="63.780625" y="105.30203" style="stroke: #000000; stroke-width: 0.6"/>
      </g>
     </g>
    </g>
    <g id="ytick_20">
     <g id="line2d_26">
      <g>
       <use xlink:href="#macb284a1a8" x="63.780625" y="95.338295" style="stroke: #000000; stroke-width: 0.6"/>
      </g>
     </g>
    </g>
    <g id="ytick_21">
     <g id="line2d_27">
      <g>
       <use xlink:href="#macb284a1a8" x="63.780625" y="86.549658" style="stroke: #000000; stroke-width: 0.6"/>
      </g>
     </g>
    </g>
    <g id="ytick_22">
     <g id="line2d_28">
      <g>
       <use xlink:href="#macb284a1a8" x="63.780625" y="26.967273" style="stroke: #000000; stroke-width: 0.6"/>
      </g>
     </g>
    </g>
    <g id="text_11">
     <!-- Entries -->
     <g transform="translate(20.877187 255.985312) rotate(-90) scale(0.18 -0.18)">
      <defs>
       <path id="DejaVuSans-45" d="M 628 4666 
L 3578 4666 
L 3578 4134 
L 1259 4134 
L 1259 2753 
L 3481 2753 
L 3481 2222 
L 1259 2222 
L 1259 531 
L 3634 531 
L 3634 0 
L 628 0 
L 628 4666 
z
" transform="scale(0.015625)"/>
       <path id="DejaVuSans-6e" d="M 3513 2113 
L 3513 0 
L 2938 0 
L 2938 2094 
Q 2938 2591 2744 2837 
Q 2550 3084 2163 3084 
Q 1697 3084 1428 2787 
Q 1159 2491 1159 1978 
L 1159 0 
L 581 0 
L 581 3500 
L 1159 3500 
L 1159 2956 
Q 1366 3272 1645 3428 
Q 1925 3584 2291 3584 
Q 2894 3584 3203 3211 
Q 3513 2838 3513 2113 
z
" transform="scale(0.015625)"/>
       <path id="DejaVuSans-69" d="M 603 3500 
L 1178 3500 
L 1178 0 
L 603 0 
L 603 3500 
z
M 603 4863 
L 1178 4863 
L 1178 4134 
L 603 4134 
L 603 4863 
z
" transform="scale(0.015625)"/>
       <path id="DejaVuSans-73" d="M 2834 3397 
L 2834 2853 
Q 2591 2978 2328 3040 
Q 2066 3103 1784 3103 
Q 1356 3103 1142 2972 
Q 928 2841 928 2578 
Q 928 2378 1081 2264 
Q 1234 2150 1697 2047 
L 1894 2003 
Q 2506 1872 2764 1633 
Q 3022 1394 3022 966 
Q 3022 478 2636 193 
Q 2250 -91 1575 -91 
Q 1294 -91 989 -36 
Q 684 19 347 128 
L 347 722 
Q 666 556 975 473 
Q 1284 391 1588 391 
Q 1994 391 2212 530 
Q 2431 669 2431 922 
Q 2431 1156 2273 1281 
Q 2116 1406 1581 1522 
L 1381 1569 
Q 847 1681 609 1914 
Q 372 2147 372 2553 
Q 372 3047 722 3315 
Q 1072 3584 1716 3584 
Q 2034 3584 2315 3537 
Q 2597 3491 2834 3397 
z
" transform="scale(0.015625)"/>
      </defs>
      <use xlink:href="#DejaVuSans-45"/>
      <use xlink:href="#DejaVuSans-6e" x="63.183594"/>
      <use xlink:href="#DejaVuSans-74" x="126.5625"/>
      <use xlink:href="#DejaVuSans-72" x="165.771484"/>
      <use xlink:href="#DejaVuSans-69" x="206.884766"/>
      <use xlink:href="#DejaVuSans-65" x="234.667969"/>
      <use xlink:href="#DejaVuSans-73" x="296.191406"/>
     </g>
    </g>
   </g>
   <g id="patch_33">
    <path d="M 63.780625 442.08 
L 63.780625 7.2 
" style="fill: none; stroke: #000000; stroke-width: 0.8; stroke-linejoin: miter; stroke-linecap: square"/>
   </g>
   <g id="patch_34">
    <path d="M 565.980625 442.08 
L 565.980625 7.2 
" style="fill: none; stroke: #000000; stroke-width: 0.8; stroke-linejoin: miter; stroke-linecap: square"/>
   </g>
   <g id="patch_35">
    <path d="M 63.780625 442.08 
L 565.980625 442.08 
" style="fill: none; stroke: #000000; stroke-width: 0.8; stroke-linejoin: miter; stroke-linecap: square"/>
   </g>
   <g id="patch_36">
    <path d="M 63.780625 7.2 
L 565.980625 7.2 
" style="fill: none; stroke: #000000; stroke-width: 0.8; stroke-linejoin: miter; stroke-linecap: square"/>
   </g>
   <g id="legend_1">
    <g id="patch_37">
     <path d="M 546.180625 30.6 
L 553.380625 30.6 
Q 556.980625 30.6 556.980625 27 
L 556.980625 19.8 
Q 556.980625 16.2 553.380625 16.2 
L 546.180625 16.2 
Q 542.580625 16.2 542.580625 19.8 
L 542.580625 27 
Q 542.580625 30.6 546.180625 30.6 
z
" style="fill: #ffffff; opacity: 0.8; stroke: #cccccc; stroke-linejoin: miter"/>
    </g>
   </g>
  </g>
 </g>
 <defs>
  <clipPath id="p36ea336588">
   <rect x="63.780625" y="7.2" width="502.2" height="434.88"/>
  </clipPath>
 </defs>
</svg>
